<?xml version="1.0" encoding="utf-8"?>
<!-- Generator: Adobe Illustrator 23.0.3, SVG Export Plug-In . SVG Version: 6.00 Build 0)  -->
<svg version="1.1" id="Layer_1" xmlns="http://www.w3.org/2000/svg" xmlns:xlink="http://www.w3.org/1999/xlink" x="0px" y="0px"
	 viewBox="0 0 147 116" style="enable-background:new 0 0 147 116;" xml:space="preserve">
<style type="text/css">
	.st0{fill:#006699;}
</style>
<g>
	<path class="st0" d="M11.2,57.2H7.9c-3.2,0-5.9,2.6-5.9,5.9v15.4c0,3.2,2.6,5.9,5.9,5.9h3.3c3.2,0,5.9-2.6,5.9-5.9V63.1
		C17.1,59.8,14.4,57.2,11.2,57.2z"/>
	<path class="st0" d="M122.1,92c-6,0-10.9,4.9-10.9,10.9s4.9,10.9,10.9,10.9c6,0,10.9-4.9,10.9-10.9C133,96.8,128.1,92,122.1,92z"/>
	<path class="st0" d="M45.6,92c-6,0-10.9,4.9-10.9,10.9s4.9,10.9,10.9,10.9s10.9-4.9,10.9-10.9S51.6,92,45.6,92z"/>
	<path class="st0" d="M135,84.9v2.5c0,1.1,0.8,2.1,1.8,2.1h8.2v-4.7c0-0.7-0.1-1.4-0.2-2h-8C135.8,82.9,135,83.8,135,84.9z"/>
	<path class="st0" d="M82.1,37.9c-1.6-2-4-3.1-6.6-3.1h-25c-2.8,0-5.4,1.3-7,3.6l-2.6,3.7h44.7L82.1,37.9z"/>
	<path class="st0" d="M83.2,54.3H65.1v15.5h31.4l-5.7-11.2C89.2,56,86.4,54.3,83.2,54.3z"/>
	<path class="st0" d="M144.9,92.5H137c-2.9,0-5.3-2.4-5.3-5.2v-2.5c0-2.9,2.4-5.3,5.2-5.3h6.6c-1.5-2.9-4.1-5.1-7.5-6l-24.2-2.2
		c-0.5-0.1-1-0.3-1.2-0.8L99.6,52c-1.1-1.9-3-4.3-5.8-5.5c-1.7-0.7-3.5-1.1-5.3-1.1H37.1c-6.6-0.1-12.2,4.9-13.1,11.4l-5.7,40.7
		c-0.2,1.7,0.3,3.4,1.4,4.7c1.1,1.3,2.8,2,4.5,2H31c0-0.3-0.1-0.7-0.1-1c0-7.9,6.4-14.3,14.3-14.3s14.3,6.4,14.3,14.3
		c0,0.4-0.1,0.7-0.1,1h48.9c0-0.3-0.1-0.7-0.1-1c0-7.9,6.4-14.3,14.3-14.3s14.3,6.4,14.3,14.3c0,0.3-0.1,0.6-0.1,1
		c4.7-0.4,8.4-4.3,8.4-9.1L144.9,92.5z M102.4,71.5c0,0.1,0,0.2-0.1,0.3c0,0.1-0.1,0.2-0.1,0.3c-0.1,0.1-0.1,0.2-0.2,0.3
		s-0.2,0.1-0.3,0.2c-0.1,0-0.1,0.1-0.2,0.1c0,0,0,0-0.1,0c-0.2,0.1-0.4,0.2-0.7,0.2l0,0l0,0l0,0h-71c-0.5,0-1-0.2-1.3-0.7
		c-0.3-0.4-0.4-1-0.2-1.4l4.3-13c1.5-4.6,5.8-7.7,10.6-7.7h20.4h19.9c4.6,0,8.7,2.3,11.2,6.2l7.6,14.3c0,0,0,0,0,0.1
		s0.1,0.2,0.1,0.3c0,0.1,0.1,0.2,0.1,0.3c0,0,0,0,0,0.1C102.5,71.3,102.5,71.4,102.4,71.5z"/>
	<path class="st0" d="M44,54.3c-3.5,0-6.5,2.1-7.6,5.2l-3.6,10.3h28.5V54.3H44z"/>
</g>
</svg>
