<?xml version="1.0" encoding="utf-8"?>
<!-- Generator: Adobe Illustrator 23.0.3, SVG Export Plug-In . SVG Version: 6.00 Build 0)  -->
<svg version="1.1" id="Layer_1" xmlns="http://www.w3.org/2000/svg" xmlns:xlink="http://www.w3.org/1999/xlink" x="0px" y="0px"
	 viewBox="0 0 147 116" style="enable-background:new 0 0 147 116;" xml:space="preserve">
<style type="text/css">
	.st0{fill:#006799;}
</style>
<g>
	<path class="st0" d="M141.4,57.1l-18.3-15.1V6.1c0-1.4-1.1-2.5-2.5-2.5H103c-1.4,0-2.5,1.1-2.5,2.5v17.2L78.9,5.4
		c-3.1-2.6-7.7-2.6-10.8,0L5.6,58c-0.8,0.7-0.9,1.8-0.2,2.6l6.7,8c0.7,0.8,1.8,0.9,2.6,0.2l58.9-49.5l58.9,48.6
		c0.8,0.6,2,0.5,2.6-0.2l6.6-8C142.3,58.9,142.2,57.7,141.4,57.1z"/>
	<path class="st0" d="M73,25.2L25.1,66.5V108c0,2.5,2,4.5,4.5,4.5h33V79.6h21.6v32.9h33c2.5,0,4.5-2,4.5-4.5V65.5L73,25.2z"/>
</g>
</svg>
