<?xml version="1.0" encoding="utf-8"?>
<!-- Generator: Adobe Illustrator 23.0.3, SVG Export Plug-In . SVG Version: 6.00 Build 0)  -->
<svg version="1.1" id="Layer_1" xmlns="http://www.w3.org/2000/svg" xmlns:xlink="http://www.w3.org/1999/xlink" x="0px" y="0px"
	 viewBox="0 0 147 116" style="enable-background:new 0 0 147 116;" xml:space="preserve">
<style type="text/css">
	.st0{fill:#006799;}
</style>
<path class="st0" d="M97.7,104.2h-2V43.3c0-1.1-0.9-2-2-2h-5.9v-9.8c0-1.1-0.9-2-2-2h-5.7v-5.9c0-1.1-0.9-2-2-2h-2V8
	c0-1.1-0.9-2-2-2s-2,0.9-2,2v13.8h-2c-1.1,0-2,0.9-2,2v5.9h-2.4v73.7h-1.5V28.1c0,0,0,0,0-0.1V17.4c2.3-0.8,3.9-3,3.9-5.5
	c0-3.2-2.6-5.9-5.9-5.9H11.3c-3.2,0-5.9,2.6-5.9,5.9c0,2.6,1.6,4.7,3.9,5.5v86.8H3.4c-1.1,0-2,0.9-2,2v7.9c0,1.1,0.9,2,2,2h58.3h2.6
	h1.5h6.3h25.6c1.1,0,2-0.9,2-2v-7.9C99.7,105.1,98.8,104.2,97.7,104.2z M13.4,17.3h23.4v7.8H13.4V17.3z M13.4,29h23.4v7.8H13.4V29z
	 M29,60.2v-7.8h7.8v7.8H29z M36.8,64.1v7.8H29v-7.8C29,64.1,36.8,64.1,36.8,64.1z M29,48.5v-7.8h7.8v7.8H29z M13.4,40.7h11.7v7.8
	H13.4V40.7z M13.4,52.4h11.7v7.8H13.4V52.4z M13.4,64.1h11.7v7.8H13.4V64.1z M13.4,75.8h11.7v7.8H13.4V75.8z M48.5,103.1H13.4V87.5
	h11.7v1.9c0,1.1,0.9,1.9,1.9,1.9c1.1,0,1.9-0.9,1.9-1.9v-1.9h19.5L48.5,103.1L48.5,103.1z M48.5,83.6H29v-7.8h19.5V83.6z M48.5,71.9
	h-7.8v-7.8h7.8V71.9z M48.5,60.2h-7.8v-7.8h7.8V60.2z M60.2,89.5v13.6h-7.8V87.5h7.8V89.5z M60.2,81.7v1.9h-7.8v-7.8h7.8V81.7z
	 M60.2,66.1v5.8h-7.8v-7.8h7.8V66.1z M60.2,58.3v1.9h-7.8v-7.8h7.8V58.3z M60.2,42.7v5.8H40.7v-7.8h19.5V42.7z M60.2,31v5.8H40.7V29
	h19.5V31z M60.2,25.1H40.7v-7.8h19.5V25.1z M92.3,87.2c0,3.6-2.9,6.5-6.5,6.5H67.4v-13h18.4C89.4,80.7,92.3,83.7,92.3,87.2
	L92.3,87.2z M92.3,70.5c0,3.6-2.9,6.5-6.5,6.5H67.4V64h18.4C89.4,64,92.3,66.9,92.3,70.5L92.3,70.5z M92.3,53.7
	c0,3.6-2.9,6.5-6.5,6.5H67.4v-13h18.4C89.4,47.2,92.3,50.1,92.3,53.7L92.3,53.7z"/>
</svg>
