<?xml version="1.0" encoding="utf-8"?>
<!-- Generator: Adobe Illustrator 23.0.3, SVG Export Plug-In . SVG Version: 6.00 Build 0)  -->
<svg version="1.1" id="Layer_1" xmlns="http://www.w3.org/2000/svg" xmlns:xlink="http://www.w3.org/1999/xlink" x="0px" y="0px"
	 viewBox="0 0 147 116" style="enable-background:new 0 0 147 116;" xml:space="preserve">
<style type="text/css">
	.st0{fill:#006799;}
</style>
<g>
	<path class="st0" d="M24,34h2v0.8h96V34h2c0.6,0,1.2-0.3,1.6-0.8c0.4-0.5,0.5-1.2,0.3-1.8l-8-28c-0.2-0.9-1-1.5-1.9-1.5H32
		c-0.9,0-1.7,0.6-1.9,1.5l-8,28c-0.2,0.6-0.1,1.3,0.3,1.8C22.8,33.7,23.4,34,24,34z"/>
	<path class="st0" d="M23.5,73.9h100.9c0.9-0.2,1.5-1,1.5-1.9v-8c0-0.7-0.4-1.4-1-1.7c-0.1,0-0.2,0.1-0.3,0.1H23.3
		c-0.1,0-0.2,0-0.3-0.1c-0.6,0.3-1,1-1,1.7v8C22,72.9,22.7,73.7,23.5,73.9z"/>
	<path class="st0" d="M122,60.9V36.3H26v24.6h10.6V41.2c0-1.1,0.9-2.1,2.1-2.1h14.7c1.1,0,2.1,0.9,2.1,2.1v19.7h11.3V41.2
		c0-1.1,0.9-2.1,2.1-2.1h10.4c1.1,0,2.1,0.9,2.1,2.1v19.7h9V41.2c0-1.1,0.9-2.1,2.1-2.1H107c1.1,0,2.1,0.9,2.1,2.1v19.7H122z"/>
	<path class="st0" d="M133.6,90.8l-6-8c-0.8-1-2.4-1-3.2,0L122,86V75.4H26V86l-2.4-3.2c-0.8-1-2.4-1-3.2,0l-6,8
		C14.1,91.1,14,91.6,14,92v20c0,1.1,0.9,2,2,2h12h36h2V90c0-4.4,3.6-8,8-8s8,3.6,8,8v24h2h36h12c1.1,0,2-0.9,2-2V92
		C134,91.6,133.9,91.1,133.6,90.8z M26,110h-8V92.7l4-5.3l4,5.3V110z M58,96c0,1.1-0.9,2-2,2H40c-1.1,0-2-0.9-2-2V80
		c0-1.1,0.9-2,2-2h16c1.1,0,2,0.9,2,2V96z M110,96c0,1.1-0.9,2-2,2H92c-1.1,0-2-0.9-2-2V80c0-1.1,0.9-2,2-2h16c1.1,0,2,0.9,2,2V96z
		 M130,110h-8V92.7l4-5.3l4,5.3V110z"/>
</g>
</svg>
