<svg width="64" height="64" viewBox="0 0 64 64" fill="none" xmlns="http://www.w3.org/2000/svg">
<path d="M32 0C14.2976 0 0 14.2976 0 32C0 49.7024 14.2976 64 32 64C49.7024 64 64 49.7024 64 32C64 14.2976 49.7024 0 32 0ZM32 9.53173C36.6293 9.53173 39.6256 13.072 39.6256 18.5195C39.6256 23.8304 36.4939 27.5072 32 27.5072C27.3696 27.5072 24.3744 23.9669 24.3744 18.5195C24.3744 13.072 27.5061 9.53173 32 9.53173ZM49.1573 49.8379C49.1573 50.3829 49.0208 50.7915 48.6123 51.0635C48.4757 51.2 44.1184 54.4683 33.4976 54.4683C32.9525 54.4683 32.544 54.4683 32 54.4683C31.456 54.4683 31.0464 54.4683 30.5024 54.4683C19.8816 54.4683 15.5243 51.2 15.3877 51.0635C14.9792 50.7904 14.8427 50.3829 14.8427 49.8379V43.0293C14.8427 35.1307 20.5621 29.1403 28.0512 29.1403H35.9499C43.4389 29.1403 49.1584 35.1317 49.1584 43.0293V49.8379H49.1573Z" fill="#990000"/>
</svg>
