<?xml version="1.0" encoding="utf-8"?>
<!-- Generator: Adobe Illustrator 23.0.3, SVG Export Plug-In . SVG Version: 6.00 Build 0)  -->
<svg version="1.1" id="Layer_1" xmlns="http://www.w3.org/2000/svg" xmlns:xlink="http://www.w3.org/1999/xlink" x="0px" y="0px"
	 viewBox="0 0 157 31" style="enable-background:new 0 0 157 31;" xml:space="preserve">
<style type="text/css">
	.st0{fill:#FFFFFF;}
</style>
<g>
	<polygon class="st0" points="50.2,15.6 53.4,15.6 53.4,5.6 57.6,12.1 57.7,12.1 62.1,5.6 62.1,15.6 65.3,15.6 65.3,0.3 61.7,0.3 
		57.7,6.7 53.7,0.3 50.2,0.3 	"/>
	<polygon class="st0" points="68.2,15.6 79.8,15.6 79.8,12.5 71.5,12.5 71.5,9.4 78.7,9.4 78.7,6.4 71.5,6.4 71.5,3.3 79.7,3.3 
		79.7,0.3 68.2,0.3 	"/>
	<path class="st0" d="M91.7,10c1.9-0.8,3.2-2.3,3.2-4.8l0,0c0-1.4-0.4-2.6-1.3-3.5c-1-1-2.5-1.5-4.4-1.5h-6.9v15.2h3.4v-4.9h2.6l0,0
		l3.2,4.9h3.9L91.7,10z M91.6,5.5c0,1.3-1,2.2-2.6,2.2h-3.4V3.3H89C90.6,3.3,91.6,4.1,91.6,5.5L91.6,5.5z"/>
	<path class="st0" d="M104.6,15.8c2.9,0,4.6-1.1,6.3-2.7l-2.2-2.2c-1.2,1.1-2.3,1.7-4,1.7c-2.6,0-4.4-2.2-4.4-4.8l0,0
		c0-2.6,1.8-4.8,4.4-4.8c1.5,0,2.7,0.6,3.9,1.7l2.2-2.5C109.3,1,107.6,0,104.8,0c-4.6,0-7.9,3.6-7.9,7.9l0,0
		C96.8,12.3,100.1,15.8,104.6,15.8"/>
	<path class="st0" d="M119.4,15.8c4.1,0,6.7-2.3,6.7-6.8V0.3h-3.4v8.7c0,2.4-1.2,3.7-3.2,3.7c-2.1,0-3.2-1.3-3.2-3.8V0.3h-3.4V9
		C112.8,13.5,115.3,15.8,119.4,15.8"/>
	<path class="st0" d="M138.3,10c1.9-0.8,3.2-2.3,3.2-4.8l0,0c0-1.4-0.4-2.6-1.3-3.5c-1-1-2.5-1.5-4.4-1.5h-6.9v15.2h3.4v-4.9h2.6
		l0,0l3.2,4.9h3.9L138.3,10z M138.2,5.5c0,1.3-1,2.2-2.6,2.2h-3.4V3.3h3.4C137.1,3.3,138.2,4.1,138.2,5.5L138.2,5.5z"/>
	<polygon class="st0" points="147.8,15.6 151.2,15.6 151.2,9.5 157,0.3 153.2,0.3 149.5,6.4 145.9,0.3 142,0.3 147.8,9.5 	"/>
	<rect x="50.2" y="18.4" class="st0" width="2.2" height="12.5"/>
	<polygon class="st0" points="55.6,30.8 57.7,30.8 57.7,21.9 64.7,30.8 66.5,30.8 66.5,18.4 64.3,18.4 64.3,27 57.6,18.4 55.6,18.4 
			"/>
	<path class="st0" d="M73.9,31c2.6,0,4.4-1.4,4.4-3.8l0,0c0-2.1-1.4-3-4-3.7c-2.4-0.5-2.9-1-2.9-1.9l0,0c0-0.9,0.8-1.5,2.1-1.5
		c1.2,0,2.3,0.4,3.4,1.3l1.2-1.6c-1.3-1-2.7-1.6-4.5-1.6c-2.5,0-4.2,1.5-4.2,3.7l0,0c0,2.3,1.5,3.1,4.1,3.8c2.3,0.5,2.8,1,2.8,1.9
		l0,0c0,1-0.9,1.6-2.2,1.6c-1.5,0-2.7-0.5-4-1.6l-1.3,1.5C70.2,30.4,71.9,31,73.9,31"/>
	<path class="st0" d="M85.9,31c3.2,0,5.4-1.8,5.4-5.6v-7.1h-2.2v7.2c0,2.3-1.2,3.5-3.1,3.5c-1.9,0-3.1-1.3-3.1-3.6v-7.1h-2.2v7.2
		C80.6,29.2,82.6,31,85.9,31"/>
	<path class="st0" d="M101.3,26.1c1.7-0.5,3-1.7,3-3.8l0,0c0-1.1-0.3-2.1-1.1-2.7c-0.8-0.8-2.1-1.3-3.6-1.3h-5.6v12.5h2.2v-4.3h2.7
		l0,0l3,4.3h2.6L101.3,26.1z M96.2,24.5v-4.2h3.2c1.6,0,2.6,0.8,2.6,2.1l0,0c0,1.3-1,2.1-2.6,2.1h-3.2V24.5z"/>
	<path class="st0" d="M113.4,18.3h-2.1l-5.5,12.5h2.3l1.3-3h5.9l1.3,3h2.3L113.4,18.3z M110.2,25.8l2.2-5l2.2,5H110.2z"/>
	<polygon class="st0" points="120.8,30.8 122.9,30.8 122.9,21.9 129.8,30.8 131.6,30.8 131.6,18.4 129.4,18.4 129.4,27 122.7,18.4 
		120.8,18.4 	"/>
	<path class="st0" d="M140.3,31c2.4,0,3.8-0.9,5.1-2.2l-1.4-1.4c-1.1,1-2.1,1.6-3.6,1.6c-2.4,0-4.1-1.9-4.1-4.4l0,0
		c0-2.5,1.7-4.4,4.1-4.4c1.4,0,2.5,0.6,3.5,1.5l1.4-1.6c-1.2-1.2-2.6-1.9-4.9-1.9c-3.8,0-6.5,2.9-6.5,6.5l0,0
		C134,28.2,136.8,31,140.3,31"/>
	<polygon class="st0" points="147.8,30.8 157,30.8 157,28.8 150,28.8 150,25.5 156.2,25.5 156.2,23.5 150,23.5 150,20.3 157,20.3 
		157,18.4 147.8,18.4 	"/>
	<polygon class="st0" points="44.5,0.3 44.5,30.8 21.7,30.8 	"/>
	<polygon class="st0" points="0,30.8 16.3,30.8 43,0.3 	"/>
</g>
</svg>
