<?xml version="1.0" encoding="utf-8"?>
<!-- Generator: Adobe Illustrator 23.0.3, SVG Export Plug-In . SVG Version: 6.00 Build 0)  -->
<svg version="1.1" id="Layer_1" xmlns="http://www.w3.org/2000/svg" xmlns:xlink="http://www.w3.org/1999/xlink" x="0px" y="0px"
	 viewBox="0 0 200 40" style="enable-background:new 0 0 200 40;" xml:space="preserve">
<g>
	<polygon points="74.7,15.5 80.1,7.2 80.1,19.9 84.3,19.9 84.3,0.3 79.8,0.3 74.7,8.6 69.7,0.3 65.1,0.3 65.1,19.9 69.2,19.9 
		69.2,7.3 74.6,15.5 	"/>
	<polygon points="92.1,12.1 101.1,12.1 101.1,8.2 92.1,8.2 92.1,4.2 102.4,4.2 102.4,0.3 87.9,0.3 87.9,19.9 102.5,19.9 102.5,16.2 
		92.1,16.2 	"/>
	<path d="M117.7,13c2.5-0.9,4.1-2.9,4.1-6.1l0,0c0-1.9-0.5-3.4-1.6-4.4c-1.3-1.3-3.1-2-5.6-2h-8.8v19.6h4.2v-6.3h3.3h0.1l4.1,6.3h5
		L117.7,13z M117.5,7.1c0,1.7-1.2,2.8-3.3,2.8H110V4.2h4.2C116.3,4.2,117.5,5.2,117.5,7.1L117.5,7.1z"/>
	<path d="M133.8,20.3c3.7,0,5.8-1.3,7.9-3.5L139,14c-1.5,1.4-2.8,2.3-5.1,2.3c-3.3,0-5.5-2.8-5.5-6.2l0,0c0-3.3,2.4-6.1,5.5-6.1
		c1.9,0,3.5,0.9,4.9,2.2l2.7-3.2c-1.7-1.8-3.9-3-7.6-3c-5.9,0-10,4.5-10,10.2v0.1C124.1,15.8,128.2,20.3,133.8,20.3z"/>
	<path d="M160.9,11.4V0.3h-4.2v11.3c0,3.1-1.5,4.8-4.1,4.8c-2.6,0-4.1-1.7-4.1-4.9V0.4h-4.2v11.2c0,5.8,3.1,8.8,8.3,8.8
		C157.6,20.3,160.9,17.4,160.9,11.4z"/>
	<path d="M172.1,13.7l4.1,6.3h5l-4.7-7c2.5-0.9,4.1-2.9,4.1-6.1V6.9c0-1.9-0.5-3.4-1.6-4.4c-1.3-1.3-3.1-2-5.6-2h-8.8v19.6h4.2v-6.3
		L172.1,13.7L172.1,13.7z M168.7,4.2h4.2c2.1,0,3.4,1,3.4,2.8v0.1c0,1.7-1.2,2.8-3.3,2.8h-4.2V4.2H168.7z"/>
	<polygon points="188.4,19.9 192.6,19.9 192.6,12.2 200,0.3 195.2,0.3 190.6,8.2 186,0.3 181,0.3 188.4,12.3 	"/>
	<rect x="65.1" y="23.6" width="2.8" height="16.2"/>
	<polygon points="83,34.8 74.6,23.6 72,23.6 72,39.8 74.7,39.8 74.7,28.4 83.3,39.8 85.7,39.8 85.7,23.6 83,23.6 	"/>
	<path d="M95.6,30.5c-3-0.8-3.8-1.3-3.8-2.5l0,0c0-1.1,1-1.9,2.6-1.9c1.4,0,2.8,0.6,4.3,1.7l1.5-2.1c-1.6-1.3-3.5-2-5.7-2
		c-3.1,0-5.4,1.9-5.4,4.7l0,0c0,3,1.8,4,5.3,4.9c2.9,0.7,3.6,1.3,3.6,2.4l0,0c0,1.2-1.1,2-2.8,2c-1.9,0-3.5-0.8-5-2.1l-1.6,2
		c1.8,1.8,4.2,2.5,6.6,2.5c3.4,0,5.6-1.8,5.6-4.9l0,0C100.7,32.5,98.9,31.2,95.6,30.5z"/>
	<path d="M114.2,32.9c0,3-1.5,4.5-4,4.5s-4-1.7-4-4.7v-9.2h-2.8v9.3c0,4.7,2.6,7.1,6.7,7.1c4.1,0,6.8-2.4,6.8-7.2v-9.2h-2.8v9.3
		H114.2z"/>
	<path d="M133.5,28.8L133.5,28.8c0-1.4-0.4-2.7-1.3-3.5c-1-1-2.6-1.7-4.6-1.7h-7v16.2h2.8v-5.7h3.5l0,0l3.9,5.7h3.3l-4.2-6.1
		C131.9,33,133.5,31.5,133.5,28.8z M123.3,31.7v-5.4h4c2.1,0,3.3,1,3.3,2.7l0,0c0,1.7-1.3,2.7-3.3,2.7h-4V31.7z"/>
	<path d="M142.4,23.5l-6.9,16.3h2.8l1.6-3.9h7.5l1.6,3.9h2.9L145,23.5C145,23.5,142.4,23.5,142.4,23.5z M141,33.4l2.7-6.4l2.7,6.4
		H141z"/>
	<polygon points="165.2,34.8 156.8,23.6 154.3,23.6 154.3,39.8 157,39.8 157,28.4 165.7,39.8 168,39.8 168,23.6 165.2,23.6 	"/>
	<path d="M179.2,37.5c-3,0-5.2-2.5-5.2-5.8l0,0c0-3.2,2.2-5.7,5.2-5.7c1.8,0,3.1,0.8,4.4,2l1.7-2.1c-1.5-1.4-3.3-2.5-6.2-2.5
		c-4.8,0-8.1,3.8-8.1,8.3l0,0c0,4.7,3.5,8.3,8,8.3c2.9,0,4.8-1.1,6.4-2.9l-1.7-1.9C182.3,36.7,181,37.5,179.2,37.5z"/>
	<polygon points="188.4,39.8 200,39.8 200,37.2 191.2,37.2 191.2,32.9 199.1,32.9 199.1,30.4 191.2,30.4 191.2,26.1 200,26.1 
		200,23.6 188.4,23.6 	"/>
	<polygon points="58,39.8 58,0.3 29.3,39.8 	"/>
	<polygon points="1.8,39.8 22.3,39.8 56,0.3 	"/>
</g>
</svg>
