<?xml version="1.0" encoding="utf-8"?>
<!-- Generator: Adobe Illustrator 23.0.3, SVG Export Plug-In . SVG Version: 6.00 Build 0)  -->
<svg version="1.1" id="Layer_1" xmlns="http://www.w3.org/2000/svg" xmlns:xlink="http://www.w3.org/1999/xlink" x="0px" y="0px"
	 viewBox="0 0 200 40" style="enable-background:new 0 0 200 40;" xml:space="preserve">
<g>
	<polygon points="75.8,15.9 80.8,8.4 80.8,19.9 84.7,19.9 84.7,2.2 80.5,2.2 75.8,9.7 71.2,2.2 67,2.2 67,19.9 70.8,19.9 70.8,8.5 
		75.7,15.9 	"/>
	<polygon points="91.9,12.8 100.2,12.8 100.2,9.3 91.9,9.3 91.9,5.7 101.4,5.7 101.4,2.2 88,2.2 88,19.9 101.5,19.9 101.5,16.5 
		91.9,16.5 	"/>
	<path d="M115.5,13.6c2.3-0.8,3.8-2.6,3.8-5.5V8.1c0-1.7-0.5-3.1-1.5-4c-1.2-1.2-2.9-1.8-5.2-1.8h-8.1v17.7h3.9v-5.7h3h0.1l3.8,5.7
		h4.6L115.5,13.6z M115.3,8.3c0,1.5-1.1,2.5-3,2.5h-3.9V5.7h3.9C114.2,5.7,115.3,6.6,115.3,8.3L115.3,8.3z"/>
	<path d="M130.4,20.2c3.4,0,5.4-1.2,7.3-3.2l-2.5-2.5c-1.4,1.3-2.6,2.1-4.7,2.1c-3,0-5.1-2.5-5.1-5.6V11c0-3,2.2-5.5,5.1-5.5
		c1.8,0,3.2,0.8,4.5,2l2.5-2.9c-1.6-1.6-3.6-2.7-7-2.7c-5.4,0-9.2,4.1-9.2,9.2v0.1C121.4,16.2,125.2,20.2,130.4,20.2z"/>
	<path d="M155.4,12.2v-10h-3.9v10.2c0,2.8-1.4,4.3-3.8,4.3c-2.4,0-3.8-1.5-3.8-4.4v-10H140v10.1c0,5.2,2.9,7.9,7.7,7.9
		C152.4,20.2,155.4,17.6,155.4,12.2z"/>
	<path d="M165.7,14.3l3.8,5.7h4.6l-4.3-6.3c2.3-0.8,3.8-2.6,3.8-5.5V8.1c0-1.7-0.5-3.1-1.5-4c-1.2-1.2-2.9-1.8-5.2-1.8h-8.1v17.7
		h3.9v-5.7H165.7L165.7,14.3z M162.6,5.7h3.9c1.9,0,3.1,0.9,3.1,2.5v0.1c0,1.5-1.1,2.5-3,2.5h-3.9V5.7z"/>
	<polygon points="180.8,19.9 184.7,19.9 184.7,12.9 191.5,2.2 187.1,2.2 182.8,9.3 178.6,2.2 174,2.2 180.8,13 	"/>
	<rect x="67" y="23.2" width="2.6" height="14.6"/>
	<polygon points="83.5,33.3 75.7,23.2 73.3,23.2 73.3,37.8 75.8,37.8 75.8,27.5 83.8,37.8 86,37.8 86,23.2 83.5,23.2 	"/>
	<path d="M95.1,29.4c-2.8-0.7-3.5-1.2-3.5-2.3v0c0-1,0.9-1.7,2.4-1.7c1.3,0,2.6,0.5,4,1.5l1.4-1.9c-1.5-1.2-3.2-1.8-5.3-1.8
		c-2.9,0-5,1.7-5,4.2v0c0,2.7,1.7,3.6,4.9,4.4c2.7,0.6,3.3,1.2,3.3,2.2v0c0,1.1-1,1.8-2.6,1.8c-1.8,0-3.2-0.7-4.6-1.9l-1.5,1.8
		c1.7,1.6,3.9,2.3,6.1,2.3c3.1,0,5.2-1.6,5.2-4.4v0C99.8,31.2,98.2,30.1,95.1,29.4z"/>
	<path d="M112.3,31.6c0,2.7-1.4,4.1-3.7,4.1c-2.3,0-3.7-1.5-3.7-4.2v-8.3h-2.6v8.4c0,4.2,2.4,6.4,6.2,6.4c3.8,0,6.3-2.2,6.3-6.5
		v-8.3h-2.6V31.6z"/>
	<path d="M130.1,27.9L130.1,27.9c0-1.3-0.4-2.4-1.2-3.2c-0.9-0.9-2.4-1.5-4.2-1.5h-6.5v14.6h2.6v-5.1h3.2h0l3.6,5.1h3l-3.9-5.5
		C128.6,31.7,130.1,30.3,130.1,27.9z M120.7,30.5v-4.9h3.7c1.9,0,3,0.9,3,2.4v0c0,1.5-1.2,2.4-3,2.4H120.7z"/>
	<path d="M138.3,23.1l-6.4,14.7h2.6l1.5-3.5h6.9l1.5,3.5h2.7l-6.4-14.7H138.3z M137,32l2.5-5.8L142,32H137z"/>
	<polygon points="159.4,33.3 151.6,23.2 149.3,23.2 149.3,37.8 151.8,37.8 151.8,27.5 159.8,37.8 162,37.8 162,23.2 159.4,23.2 	"/>
	<path d="M172.3,35.7c-2.8,0-4.8-2.3-4.8-5.2v0c0-2.9,2-5.1,4.8-5.1c1.7,0,2.9,0.7,4.1,1.8l1.6-1.9c-1.4-1.3-3-2.3-5.7-2.3
		c-4.4,0-7.5,3.4-7.5,7.5v0c0,4.2,3.2,7.5,7.4,7.5c2.7,0,4.4-1,5.9-2.6l-1.6-1.7C175.2,35,174,35.7,172.3,35.7z"/>
	<polygon points="180.8,37.8 191.5,37.8 191.5,35.5 183.4,35.5 183.4,31.6 190.7,31.6 190.7,29.3 183.4,29.3 183.4,25.5 191.5,25.5 
		191.5,23.2 180.8,23.2 	"/>
	<polygon points="60.4,37.8 60.4,2.2 33.9,37.8 	"/>
	<polygon points="8.5,37.8 27.5,37.8 58.6,2.2 	"/>
</g>
</svg>
