<?xml version="1.0" encoding="utf-8"?>
<!-- Generator: Adobe Illustrator 23.0.3, SVG Export Plug-In . SVG Version: 6.00 Build 0)  -->
<svg version="1.1" id="Layer_1" xmlns="http://www.w3.org/2000/svg" xmlns:xlink="http://www.w3.org/1999/xlink" x="0px" y="0px"
	 viewBox="0 0 79.2 69.9" style="enable-background:new 0 0 79.2 69.9;" xml:space="preserve">
<style type="text/css">
	.st0{fill-rule:evenodd;clip-rule:evenodd;fill:#990000;}
</style>
<g>
	<path class="st0" d="M34.4,26.9L34.4,26.9c0.2,1.3,0.4,2.8,0.7,4.6c0.3,1.8,0.6,3.6,1,5.5c0.3,1.9,0.6,3.7,0.8,5.4s0.4,3.1,0.5,4.3
		c0,0.4,0.1,0.7,0.2,0.9c0.2,0.5,0.7,0.8,1.3,0.8H40c0.6,0,1-0.2,1.1-0.5c0.1,0,0.1-0.1,0.2-0.1c0.2-0.2,0.3-0.5,0.3-0.9
		c0.1-1.1,0.3-2.6,0.5-4.3c0.3-1.7,0.6-3.5,0.9-5.5c0.4-2,0.7-3.9,1.1-5.7c0.4-1.9,0.7-3.5,0.9-5s0.3-2.6,0.3-3.4v-0.1
		c0-0.8-0.1-1.6-0.3-2.2c-0.2-0.7-0.6-1.3-1.1-1.8v0c-0.9-0.9-2.4-1.4-4.3-1.4l0,0c-2,0.1-3.4,0.7-4.2,2c-0.9,1.2-1.3,2.6-1.2,4.5
		v0.1C34.1,24.5,34.2,25.5,34.4,26.9z M41.3,0.3c1.1,0.4,2,1.1,2.6,2.1l34.6,60c0.6,1.1,0.8,2.2,0.6,3.4l0,0
		c-0.2,1.2-0.8,2.1-1.7,2.9l0,0c-0.9,0.8-2,1.2-3.2,1.2H5c-1.2,0-2.2-0.4-3.2-1.2l0,0c-0.9-0.8-1.5-1.7-1.7-2.9l0,0
		c-0.2-1.2,0-2.3,0.5-3.4l34.6-60c0.6-1,1.5-1.7,2.6-2.1C39-0.1,40.1-0.1,41.3,0.3z M43.4,53.7c-0.9-1.1-2.2-1.6-3.9-1.6
		c-1.3,0-2.4,0.3-3.3,0.9h-0.1c-0.8,0.6-1.4,1.3-1.7,2.1h-0.1c-0.4,0.8-0.5,1.6-0.5,2.3l0,0c0,1.6,0.6,2.9,1.7,3.8
		c1,0.9,2.2,1.3,3.6,1.4h0.1c1.8,0,3.2-0.5,4.1-1.5c1-0.9,1.4-2.1,1.5-3.6C44.8,56,44.3,54.7,43.4,53.7z"/>
</g>
</svg>
